<svg xmlns="http://www.w3.org/2000/svg" version="1.1" xmlns:xlink="http://www.w3.org/1999/xlink" xmlns:svgjs="http://svgjs.dev/svgjs" width="1000" height="214" viewBox="0 0 1000 214"><g transform="matrix(1,0,0,1,-0.6060606060606233,-0.1992520602084511)"><svg viewBox="0 0 396 85" data-background-color="#ffffff" preserveAspectRatio="xMidYMid meet" height="214" width="1000" xmlns="http://www.w3.org/2000/svg" xmlns:xlink="http://www.w3.org/1999/xlink"><g id="tight-bounds" transform="matrix(1,0,0,1,0.2400000000000091,0.07914217344728058)"><svg viewBox="0 0 395.52 84.84171565310542" height="84.84171565310542" width="395.52"><g><svg viewBox="0 0 566.9329682812672 121.6109569409646" height="84.84171565310542" width="395.52"><g><rect width="5.420809543239124" height="88.43633265243807" x="151.80155783949633" y="16.587312144263265" fill="#d65649" opacity="1" stroke-width="0" stroke="transparent" fill-opacity="1" class="rect-o-0" data-fill-palette-color="secondary" rx="1%" id="o-0" data-palette-color="#d65649"></rect></g><g transform="matrix(1,0,0,1,171.41296828126718,16.807303021508133)"><svg viewBox="0 0 395.52 87.99635089794833" height="87.99635089794833" width="395.52"><g id="textblocktransform"><svg viewBox="0 0 395.52 87.99635089794833" height="87.99635089794833" width="395.52" id="textblock"><g><svg viewBox="0 0 395.52 60.11030726770929" height="60.11030726770929" width="395.52"><g transform="matrix(1,0,0,1,0,0)"><svg width="395.52" viewBox="3.1500000953674316 -40.849998474121094 271.7300109863281 41.29999923706055" height="60.11030726770929" data-palette-color="#d65649"><path d="M8.8 0L3.15 0 3.15-40.5 11.3-40.5Q15.35-40.5 18-39.43 20.65-38.35 21.93-35.98 23.2-33.6 23.2-29.75L23.2-29.75Q23.2-27.4 22.7-25.48 22.2-23.55 21.1-22.23 20-20.9 18.2-20.3L18.2-20.3 23.95 0 18.5 0 13.2-19 8.8-19 8.8 0ZM8.8-36.45L8.8-23.05 10.95-23.05Q13.35-23.05 14.85-23.65 16.35-24.25 17.05-25.7 17.75-27.15 17.75-29.75L17.75-29.75Q17.75-33.3 16.45-34.88 15.15-36.45 11.3-36.45L11.3-36.45 8.8-36.45ZM39.55 0.45L39.55 0.45Q35.15 0.45 32.8-1.3 30.45-3.05 29.6-6.23 28.75-9.4 28.75-13.65L28.75-13.65 28.75-40.5 34.15-40.5 34.15-13.4Q34.15-10.8 34.5-8.65 34.85-6.5 36.02-5.25 37.2-4 39.55-4L39.55-4Q41.95-4 43.1-5.25 44.25-6.5 44.6-8.65 44.95-10.8 44.95-13.4L44.95-13.4 44.95-40.5 50.3-40.5 50.3-13.65Q50.3-9.4 49.45-6.23 48.6-3.05 46.27-1.3 43.95 0.45 39.55 0.45ZM65.8 0.45L65.8 0.45Q62.3 0.45 59.97-1.05 57.65-2.55 56.45-5.2 55.25-7.85 55.05-11.35L55.05-11.35 60.05-12.7Q60.2-10.55 60.72-8.55 61.25-6.55 62.45-5.28 63.65-4 65.8-4L65.8-4Q68-4 69.12-5.23 70.25-6.45 70.25-8.75L70.25-8.75Q70.25-11.5 69-13.18 67.75-14.85 65.84-16.55L65.84-16.55 59.05-22.55Q57.05-24.3 56.1-26.38 55.15-28.45 55.15-31.5L55.15-31.5Q55.15-35.95 57.7-38.4 60.25-40.85 64.65-40.85L64.65-40.85Q67.05-40.85 68.87-40.23 70.7-39.6 71.92-38.3 73.15-37 73.87-35.02 74.59-33.05 74.84-30.4L74.84-30.4 70.05-29.1Q69.9-31.1 69.45-32.77 69-34.45 67.87-35.48 66.75-36.5 64.65-36.5L64.65-36.5Q62.55-36.5 61.37-35.38 60.2-34.25 60.2-32.05L60.2-32.05Q60.2-30.2 60.82-29 61.45-27.8 62.85-26.55L62.85-26.55 69.7-20.55Q72-18.55 73.75-15.78 75.5-13 75.5-9.2L75.5-9.2Q75.5-6.2 74.25-4.03 73-1.85 70.82-0.7 68.65 0.45 65.8 0.45ZM89.99 0L84.34 0 84.34-36.3 77.49-36.3 77.49-40.5 96.64-40.5 96.64-36.3 89.99-36.3 89.99 0ZM110.69 0.45L110.69 0.45Q106.39 0.45 104.02-1.35 101.64-3.15 100.72-6.2 99.79-9.25 99.79-13L99.79-13 99.79-27.3Q99.79-31.4 100.72-34.45 101.64-37.5 104.02-39.18 106.39-40.85 110.69-40.85L110.69-40.85Q114.49-40.85 116.72-39.45 118.94-38.05 119.92-35.45 120.89-32.85 120.89-29.2L120.89-29.2 120.89-26 115.54-26 115.54-28.85Q115.54-31.1 115.32-32.83 115.09-34.55 114.09-35.5 113.09-36.45 110.74-36.45L110.74-36.45Q108.34-36.45 107.24-35.43 106.14-34.4 105.82-32.52 105.49-30.65 105.49-28.15L105.49-28.15 105.49-12.1Q105.49-9.05 105.99-7.28 106.49-5.5 107.64-4.75 108.79-4 110.74-4L110.74-4Q113.04-4 114.04-5.03 115.04-6.05 115.29-7.85 115.54-9.65 115.54-12.05L115.54-12.05 115.54-15.05 120.89-15.05 120.89-12.05Q120.89-8.35 119.99-5.53 119.09-2.7 116.89-1.13 114.69 0.45 110.69 0.45ZM131.94 0L126.29 0 126.29-40.5 134.44-40.5Q138.49-40.5 141.14-39.43 143.79-38.35 145.06-35.98 146.34-33.6 146.34-29.75L146.34-29.75Q146.34-27.4 145.84-25.48 145.34-23.55 144.24-22.23 143.14-20.9 141.34-20.3L141.34-20.3 147.09 0 141.64 0 136.34-19 131.94-19 131.94 0ZM131.94-36.45L131.94-23.05 134.09-23.05Q136.49-23.05 137.99-23.65 139.49-24.25 140.19-25.7 140.89-27.15 140.89-29.75L140.89-29.75Q140.89-33.3 139.59-34.88 138.29-36.45 134.44-36.45L134.44-36.45 131.94-36.45ZM163.84 0L158.44 0 158.44-14.3 149.69-40.5 154.94-40.5 161.14-20.95 167.24-40.5 172.54-40.5 163.84-14.3 163.84 0ZM181.93 0L176.28 0 176.28-40.5 186.33-40.5Q189.98-40.5 192.16-39.18 194.33-37.85 195.33-35.35 196.33-32.85 196.33-29.3L196.33-29.3Q196.33-26.1 195.21-23.75 194.08-21.4 191.88-20.13 189.68-18.85 186.38-18.85L186.38-18.85 181.93-18.85 181.93 0ZM181.93-36.45L181.93-22.9 184.53-22.9Q186.98-22.9 188.38-23.45 189.78-24 190.38-25.38 190.98-26.75 190.98-29.25L190.98-29.25Q190.98-32.15 190.56-33.7 190.13-35.25 188.78-35.85 187.43-36.45 184.58-36.45L184.58-36.45 181.93-36.45ZM210.38 0L204.73 0 204.73-36.3 197.88-36.3 197.88-40.5 217.03-40.5 217.03-36.3 210.38-36.3 210.38 0ZM231.38 0.45L231.38 0.45Q226.98 0.45 224.63-1.3 222.28-3.05 221.43-6.23 220.58-9.4 220.58-13.65L220.58-13.65 220.58-40.5 225.98-40.5 225.98-13.4Q225.98-10.8 226.33-8.65 226.68-6.5 227.85-5.25 229.03-4 231.38-4L231.38-4Q233.78-4 234.93-5.25 236.08-6.5 236.43-8.65 236.78-10.8 236.78-13.4L236.78-13.4 236.78-40.5 242.13-40.5 242.13-13.65Q242.13-9.4 241.28-6.23 240.43-3.05 238.1-1.3 235.78 0.45 231.38 0.45ZM252.58 0L247.98 0 248.73-40.5 254.28-40.5 261.43-7.65 268.63-40.5 274.13-40.5 274.88 0 270.33 0 269.88-29.4 263.03 0 259.83 0 253.03-29.4 252.58 0Z" opacity="1" transform="matrix(1,0,0,1,0,0)" fill="#d65649" class="wordmark-text-0" data-fill-palette-color="primary" id="text-0"></path></svg></g></svg></g><g transform="matrix(1,0,0,1,0,74.30090816624103)"><svg viewBox="0 0 232.20979199999996 13.695442731707315" height="13.695442731707315" width="232.20979199999996"><g transform="matrix(1,0,0,1,0,0)"><svg width="232.20979199999996" viewBox="2.700000047683716 -40.29999923706055 701.0599975585938 41.349998474121094" height="13.695442731707315" data-palette-color="#d65649"><path d="M21.7-19.05Q25.2-19.05 27.28-20.9 29.35-22.75 29.35-26L29.35-26Q29.35-30.7 26.95-33.73 24.55-36.75 19.95-36.75L19.95-36.75Q16.4-36.75 13.5-34.7L13.5-34.7 13.5-3.9 21.1-1.7 20.2 0.05 3.15 0.05 3.15-1.25 7.85-4.95 7.85-35.85 2.7-37.55 3.55-39.3 8.85-39.3Q13.8-39.3 18.6-39.6L18.6-39.6Q22.1-39.8 23.8-39.8L23.8-39.8Q27.25-39.8 29.9-38.33 32.55-36.85 34.02-34.27 35.5-31.7 35.5-28.55L35.5-28.55Q35.5-25.1 33-22.03 30.5-18.95 26.63-17.2 22.75-15.45 18.95-15.65L18.95-15.65 16.55-17.4 17.45-19.15 21.75-19.15 21.7-19.05ZM76.35-1.75L75.45 0 60.95 0 60.95-1.3 65.45-5 61.45-14.65 44.45-14.65 40.05-4.6 49.05-1.75 48.2 0 33.2 0 33.2-1.3 37.75-4.9 52.15-37.7 56.65-40.25 71.35-4.9 76.35-1.75ZM60.65-16.6L53.2-34.6 45.3-16.6 60.65-16.6ZM101.9-9Q101.9-10.55 100.65-11.93 99.4-13.3 97.55-14.38 95.7-15.45 92.4-17.15L92.4-17.15Q88.55-19.1 86.22-20.5 83.9-21.9 82.27-23.83 80.65-25.75 80.65-28.1L80.65-28.1Q80.65-30.6 82.7-33.48 84.75-36.35 87.72-38.33 90.7-40.3 93.2-40.3L93.2-40.3Q96.25-40.3 100.27-39.55 104.3-38.8 106.15-37.95L106.15-37.95 106.15-28.5 104.8-28.5Q102.3-32.6 99.3-34.83 96.3-37.05 93-37.05L93-37.05Q89.95-37.05 88.2-35.18 86.45-33.3 86.45-30.3L86.45-30.3Q86.45-28.65 87.75-27.23 89.05-25.8 90.97-24.65 92.9-23.5 96.2-21.85L96.2-21.85Q99.95-19.95 102.22-18.57 104.5-17.2 106.07-15.33 107.65-13.45 107.65-11.15L107.65-11.15Q107.65-8.65 105.45-5.78 103.25-2.9 100.07-0.93 96.9 1.05 94.3 1.05L94.3 1.05Q91.1 1.05 86.7 0.3 82.3-0.45 80.4-1.3L80.4-1.3 80.4-10.75 81.75-10.75Q84.4-6.65 87.72-4.42 91.05-2.2 94.55-2.2L94.55-2.2Q96.75-2.2 98.42-3.15 100.1-4.1 101-5.68 101.9-7.25 101.9-9L101.9-9ZM136.89-9Q136.89-10.55 135.64-11.93 134.39-13.3 132.54-14.38 130.69-15.45 127.39-17.15L127.39-17.15Q123.54-19.1 121.22-20.5 118.89-21.9 117.27-23.83 115.64-25.75 115.64-28.1L115.64-28.1Q115.64-30.6 117.69-33.48 119.74-36.35 122.72-38.33 125.69-40.3 128.19-40.3L128.19-40.3Q131.24-40.3 135.27-39.55 139.29-38.8 141.14-37.95L141.14-37.95 141.14-28.5 139.79-28.5Q137.29-32.6 134.29-34.83 131.29-37.05 127.99-37.05L127.99-37.05Q124.94-37.05 123.19-35.18 121.44-33.3 121.44-30.3L121.44-30.3Q121.44-28.65 122.74-27.23 124.04-25.8 125.97-24.65 127.89-23.5 131.19-21.85L131.19-21.85Q134.94-19.95 137.22-18.57 139.49-17.2 141.07-15.33 142.64-13.45 142.64-11.15L142.64-11.15Q142.64-8.65 140.44-5.78 138.24-2.9 135.07-0.93 131.89 1.05 129.29 1.05L129.29 1.05Q126.09 1.05 121.69 0.3 117.29-0.45 115.39-1.3L115.39-1.3 115.39-10.75 116.74-10.75Q119.39-6.65 122.72-4.42 126.04-2.2 129.54-2.2L129.54-2.2Q131.74-2.2 133.42-3.15 135.09-4.1 135.99-5.68 136.89-7.25 136.89-9L136.89-9ZM205.29-37.95L201.04-34.6 188.89-1.55 184.39 1 176.24-23.3 168.44-1.55 163.94 1 151.19-34.5 146.44-37.5 147.34-39.25 160.54-39.25 160.54-37.95 156.89-35.15 167.39-5.3 175.14-26.7 172.49-34.65 167.84-37.55 168.69-39.3 182.84-39.3 182.84-38 178.54-34.45 187.89-5.45 198.49-34.7 189.39-37.55 190.29-39.3 205.29-39.3 205.29-37.95ZM230.14-40.3Q235.34-40.3 239.36-37.75 243.39-35.2 245.59-30.7 247.79-26.2 247.79-20.5L247.79-20.5Q247.79-14.65 244.44-9.7 241.09-4.75 236.11-1.88 231.14 1 226.59 1L226.59 1Q221.39 1 217.39-1.55 213.39-4.1 211.16-8.58 208.94-13.05 208.94-18.75L208.94-18.75Q208.94-24.6 212.29-29.58 215.64-34.55 220.61-37.43 225.59-40.3 230.14-40.3L230.14-40.3ZM227.24-36.4Q223.84-36.4 221.04-34.43 218.24-32.45 216.64-28.98 215.04-25.5 215.04-21.15L215.04-21.15Q215.04-16.15 216.61-12 218.19-7.85 221.44-5.38 224.69-2.9 229.49-2.9L229.49-2.9Q232.89-2.9 235.69-4.88 238.49-6.85 240.09-10.33 241.69-13.8 241.69-18.15L241.69-18.15Q241.69-23.2 240.11-27.33 238.54-31.45 235.29-33.93 232.04-36.4 227.24-36.4L227.24-36.4ZM291.39-1.6L290.54 0.15 281.54 0.15 270.24-17.7 267.89-19.45 268.54-20.75 271.44-20.75Q274.99-20.75 277.04-22.48 279.09-24.2 279.09-27.25L279.09-27.25Q279.09-31.3 276.84-34 274.59-36.7 270.24-36.7L270.24-36.7Q267.34-36.7 264.94-35L264.94-35 264.94-3.5 270.14-1.65 269.29 0.1 254.59 0.1 254.59-1.2 259.29-4.85 259.29-35.7 254.14-37.5 254.99-39.25 260.29-39.25Q264.84-39.25 269.34-39.55L269.34-39.55Q272.54-39.75 274.14-39.75L274.14-39.75Q277.39-39.75 279.94-38.4 282.49-37.05 283.89-34.77 285.29-32.5 285.29-29.75L285.29-29.75Q285.29-27.25 283.69-24.95 282.09-22.65 279.56-20.98 277.04-19.3 274.24-18.45L274.24-18.45 277.39-17.35 285.39-4.7 291.39-1.6ZM314.88-39.75Q319.93-39.75 323.83-37.27 327.73-34.8 329.86-30.4 331.98-26 331.98-20.45L331.98-20.45Q331.98-14.75 328.71-9.93 325.43-5.1 320.58-2.27 315.73 0.55 311.33 0.55L311.33 0.55Q308.98 0.55 306.63 0.3L306.63 0.3Q302.73 0.05 300.63 0.05L300.63 0.05 294.63 0.05 294.63-1.25 299.33-4.95 299.33-35.85 294.18-37.55 295.03-39.3 300.58-39.3Q305.28-39.3 309.88-39.6L309.88-39.6Q313.28-39.8 314.88-39.8L314.88-39.8 314.88-39.75ZM312.78-3Q316.48-3 319.48-4.98 322.48-6.95 324.21-10.4 325.93-13.85 325.93-18.15L325.93-18.15Q325.93-23.3 324.31-27.55 322.68-31.8 319.33-34.33 315.98-36.85 311.03-36.85L311.03-36.85Q307.73-36.85 304.98-34.9L304.98-34.9 304.98-4.3Q308.23-2.95 312.73-2.95L312.73-2.95 312.78-3ZM384.68-40.2L384.68-28.95 383.43-28.6 377.53-37.35 363.33-37.35 363.33-21.05 371.58-21.05 375.23-27.6 376.53-27.6 376.53-14.1 374.78-13.2 371.78-19.1 363.33-19.1 363.33-3.95 370.93-1.75 370.03 0 352.98 0 352.98-1.3 357.68-5 357.68-35.75 352.53-37.55 353.38-39.3 382.18-39.3 384.68-40.2ZM413.33-40.3Q418.53-40.3 422.55-37.75 426.58-35.2 428.78-30.7 430.98-26.2 430.98-20.5L430.98-20.5Q430.98-14.65 427.63-9.7 424.28-4.75 419.3-1.88 414.33 1 409.78 1L409.78 1Q404.58 1 400.58-1.55 396.58-4.1 394.35-8.58 392.13-13.05 392.13-18.75L392.13-18.75Q392.13-24.6 395.48-29.58 398.83-34.55 403.8-37.43 408.78-40.3 413.33-40.3L413.33-40.3ZM410.43-36.4Q407.03-36.4 404.23-34.43 401.43-32.45 399.83-28.98 398.23-25.5 398.23-21.15L398.23-21.15Q398.23-16.15 399.8-12 401.38-7.85 404.63-5.38 407.88-2.9 412.68-2.9L412.68-2.9Q416.08-2.9 418.88-4.88 421.68-6.85 423.28-10.33 424.88-13.8 424.88-18.15L424.88-18.15Q424.88-23.2 423.3-27.33 421.73-31.45 418.48-33.93 415.23-36.4 410.43-36.4L410.43-36.4ZM474.57-1.6L473.72 0.15 464.72 0.15 453.42-17.7 451.07-19.45 451.72-20.75 454.62-20.75Q458.17-20.75 460.22-22.48 462.27-24.2 462.27-27.25L462.27-27.25Q462.27-31.3 460.02-34 457.77-36.7 453.42-36.7L453.42-36.7Q450.52-36.7 448.12-35L448.12-35 448.12-3.5 453.32-1.65 452.47 0.1 437.77 0.1 437.77-1.2 442.47-4.85 442.47-35.7 437.32-37.5 438.17-39.25 443.47-39.25Q448.02-39.25 452.52-39.55L452.52-39.55Q455.72-39.75 457.32-39.75L457.32-39.75Q460.57-39.75 463.12-38.4 465.67-37.05 467.07-34.77 468.47-32.5 468.47-29.75L468.47-29.75Q468.47-27.25 466.87-24.95 465.27-22.65 462.75-20.98 460.22-19.3 457.42-18.45L457.42-18.45 460.57-17.35 468.57-4.7 474.57-1.6ZM512.42-40.2L512.42-27.95 511.17-27.6 504.57-37.35 498.17-37.35 498.17-3.6 503.37-1.75 502.47 0 487.77 0 487.77-1.3 492.47-5 492.47-37.35 486.27-37.35 479.67-27.6 478.42-27.95 478.42-40.2 480.92-39.3 509.92-39.3 512.42-40.2ZM551.52 0.9L549.02 0 519.32 0 519.32-1.3 524.02-5 524.02-35.75 518.87-37.55 519.72-39.3 548.52-39.3 551.02-40.2 551.02-28.95 549.77-28.6 543.87-37.35 529.67-37.35 529.67-21.05 537.92-21.05 541.57-27.6 542.87-27.6 542.87-12.3 541.12-11.4 538.02-19.1 529.67-19.1 529.67-1.95 543.67-1.95 550.27-11.75 551.52-11.35 551.52 0.9ZM596.76-1.6L595.91 0.15 586.91 0.15 575.61-17.7 573.26-19.45 573.91-20.75 576.81-20.75Q580.36-20.75 582.41-22.48 584.46-24.2 584.46-27.25L584.46-27.25Q584.46-31.3 582.21-34 579.96-36.7 575.61-36.7L575.61-36.7Q572.71-36.7 570.31-35L570.31-35 570.31-3.5 575.51-1.65 574.66 0.1 559.96 0.1 559.96-1.2 564.66-4.85 564.66-35.7 559.51-37.5 560.36-39.25 565.66-39.25Q570.21-39.25 574.71-39.55L574.71-39.55Q577.91-39.75 579.51-39.75L579.51-39.75Q582.76-39.75 585.31-38.4 587.86-37.05 589.26-34.77 590.66-32.5 590.66-29.75L590.66-29.75Q590.66-27.25 589.06-24.95 587.46-22.65 584.94-20.98 582.41-19.3 579.61-18.45L579.61-18.45 582.76-17.35 590.76-4.7 596.76-1.6ZM632.21 0.9L629.71 0 600.01 0 600.01-1.3 604.71-5 604.71-35.75 599.56-37.55 600.41-39.3 629.21-39.3 631.71-40.2 631.71-28.95 630.46-28.6 624.56-37.35 610.36-37.35 610.36-21.05 618.61-21.05 622.26-27.6 623.56-27.6 623.56-12.3 621.81-11.4 618.71-19.1 610.36-19.1 610.36-1.95 624.36-1.95 630.96-11.75 632.21-11.35 632.21 0.9ZM663.01-9Q663.01-10.55 661.76-11.93 660.51-13.3 658.66-14.38 656.81-15.45 653.51-17.15L653.51-17.15Q649.66-19.1 647.33-20.5 645.01-21.9 643.38-23.83 641.76-25.75 641.76-28.1L641.76-28.1Q641.76-30.6 643.81-33.48 645.86-36.35 648.83-38.33 651.81-40.3 654.31-40.3L654.31-40.3Q657.36-40.3 661.38-39.55 665.41-38.8 667.26-37.95L667.26-37.95 667.26-28.5 665.91-28.5Q663.41-32.6 660.41-34.83 657.41-37.05 654.11-37.05L654.11-37.05Q651.06-37.05 649.31-35.18 647.56-33.3 647.56-30.3L647.56-30.3Q647.56-28.65 648.86-27.23 650.16-25.8 652.08-24.65 654.01-23.5 657.31-21.85L657.31-21.85Q661.06-19.95 663.33-18.57 665.61-17.2 667.18-15.33 668.76-13.45 668.76-11.15L668.76-11.15Q668.76-8.65 666.56-5.78 664.36-2.9 661.18-0.93 658.01 1.05 655.41 1.05L655.41 1.05Q652.21 1.05 647.81 0.3 643.41-0.45 641.51-1.3L641.51-1.3 641.51-10.75 642.86-10.75Q645.51-6.65 648.83-4.42 652.16-2.2 655.66-2.2L655.66-2.2Q657.86-2.2 659.53-3.15 661.21-4.1 662.11-5.68 663.01-7.25 663.01-9L663.01-9ZM698.01-9Q698.01-10.55 696.76-11.93 695.51-13.3 693.66-14.38 691.81-15.45 688.51-17.15L688.51-17.15Q684.66-19.1 682.33-20.5 680.01-21.9 678.38-23.83 676.76-25.75 676.76-28.1L676.76-28.1Q676.76-30.6 678.81-33.48 680.86-36.35 683.83-38.33 686.81-40.3 689.31-40.3L689.31-40.3Q692.36-40.3 696.38-39.55 700.41-38.8 702.26-37.95L702.26-37.95 702.26-28.5 700.91-28.5Q698.41-32.6 695.41-34.83 692.41-37.05 689.11-37.05L689.11-37.05Q686.06-37.05 684.31-35.18 682.56-33.3 682.56-30.3L682.56-30.3Q682.56-28.65 683.86-27.23 685.16-25.8 687.08-24.65 689.01-23.5 692.31-21.85L692.31-21.85Q696.06-19.95 698.33-18.57 700.61-17.2 702.18-15.33 703.76-13.45 703.76-11.15L703.76-11.15Q703.76-8.65 701.56-5.78 699.36-2.9 696.18-0.93 693.01 1.05 690.41 1.05L690.41 1.05Q687.21 1.05 682.81 0.3 678.41-0.45 676.51-1.3L676.51-1.3 676.51-10.75 677.86-10.75Q680.51-6.65 683.83-4.42 687.16-2.2 690.66-2.2L690.66-2.2Q692.86-2.2 694.53-3.15 696.21-4.1 697.11-5.68 698.01-7.25 698.01-9L698.01-9Z" opacity="1" transform="matrix(1,0,0,1,0,0)" fill="#d65649" class="slogan-text-1" data-fill-palette-color="secondary" id="text-1"></path></svg></g></svg></g></svg></g></svg></g><g><svg viewBox="0 0 137.6109569409646 121.6109569409646" height="121.6109569409646" width="137.6109569409646"><g><svg xmlns="http://www.w3.org/2000/svg" xmlns:xlink="http://www.w3.org/1999/xlink" version="1.1" baseProfile="tiny" x="8" y="0" viewBox="0 0 100 100" xml:space="preserve" height="121.6109569409646" width="121.6109569409646" class="icon-icon-0" data-fill-palette-color="accent" id="icon-0"><path d="M100 52.993v-6.004H53.466v-3.947h45.905c0 0-3.666-37.641-41.991-42.47v34.642h31.661c0 0-5.333-14.49-13.331-17.821v11.992H63.546V8.566c0 0 22.161 3.165 29.327 29.313l-39.407-0.232V0h-6.005v37.611L8.058 37.379c0 0 5.331-23.317 29.826-29.812l-0.333 21.818H25.554V17.061c0 0-9.998 4.996-13.997 18.154H43.05V0.739c0 0-37.326 5.496-42.491 42.303h46.902v3.947H0v6.004h47.461v4.537H0.642c5.166 36.806 42.492 42.302 42.492 42.302V65.357H11.64c3.999 13.158 13.997 18.154 13.997 18.154V71.187h11.998l0.333 21.818C13.473 86.51 8.141 63.192 8.141 63.192l39.32-0.231v36.988h6.005V62.925l39.49-0.231c-7.165 26.147-29.327 29.313-29.327 29.313V71.187h12.165v11.991c7.998-3.33 13.33-17.819 13.33-17.819H57.463V100c38.326-4.829 41.992-42.47 41.992-42.47H53.466v-4.537H100z" fill="#d65649" data-fill-palette-color="accent"></path></svg></g></svg></g></svg></g><defs></defs></svg><rect width="395.52" height="84.84171565310542" fill="none" stroke="none" visibility="hidden"></rect></g></svg></g></svg>